<?xml version="1.0" encoding="utf-8"?>
<!-- Generator: Adobe Illustrator 19.0.0, SVG Export Plug-In . SVG Version: 6.00 Build 0)  -->
<svg version="1.1" id="layer" xmlns="http://www.w3.org/2000/svg" xmlns:xlink="http://www.w3.org/1999/xlink" x="0px" y="0px"
	 viewBox="-153 -46 652 652" style="enable-background:new -153 -46 652 652;" xml:space="preserve">
<style type="text/css">
	.st0{fill:#0064AE;}
	.st1{fill:#FFFFFF;}
</style>
<path class="st0" d="M-106.5,342.9h575V208.7H-89c-13.3,0-21.6,11.2-24.3,24.2l-17.5,85.7C-134.3,336-126.1,342.9-106.5,342.9"/>
<polygon class="st1" points="-55.4,297.3 -50.1,297.3 -50.1,242.8 -55.4,246.8 "/>
<polygon class="st1" points="-62.8,297.3 -57.5,297.3 -57.5,246.8 -62.9,242.8 "/>
<path class="st1" d="M-36.1,294.8c13.3-4.2,19.7-29,0-38.7C-12.7,261.4-19,292.5-36.1,294.8 M-47.1,254.1
	c23.7,3.8,23.3,38.9-0.2,43.2C-1.8,301.7-6.5,247-47.1,254.1"/>
<path class="st1" d="M-76.8,256.1c-19.8,9.7-13.4,34.5,0,38.7C-94,292.5-100.3,261.4-76.8,256.1 M-65.8,254.1
	c-40.6-7-45.3,47.6,0.2,43.2C-89.1,293-89.5,257.9-65.8,254.1"/>
<path class="st1" d="M26.3,261.3L26.3,261.3c-0.9-0.5-1.9-0.9-2.8-1.2c-0.8-0.3-1.6-0.5-2.4-0.6l0,0c-0.1,0-0.3-0.1-0.5-0.1v0
	c-1-0.2-2-0.2-3-0.2h0c-1.3,0-2.5,0.1-3.7,0.3c-1.2,0.2-2.3,0.5-3.4,1v0c-1.1,0.4-2.1,1-3.1,1.6c-1,0.6-1.9,1.4-2.8,2.3l0,0
	c-0.9,0.9-1.7,1.9-2.4,2.9c-0.7,1-1.3,2.1-1.7,3.2h0c-0.4,0.9-0.7,1.9-0.9,2.9c0,0.1-0.1,0.3-0.1,0.6c-0.2,1.2-0.3,2.5-0.3,3.9v0
	c0,1.6,0.2,3.1,0.5,4.5c0.3,1.4,0.8,2.8,1.5,4.1c1,1.9,2.3,3.6,3.9,5c0.3,0.3,0.6,0.6,1,0.8c0.3,0.3,0.7,0.5,1,0.7
	c0.1,0.1,0,0,0.1,0c0,0,0,0,0,0h0l0,0c1.1,0.8,2.3,1.4,3.5,1.9h0c0.2,0.1,0.5,0.2,0.7,0.3h0c0.2,0.1,0.5,0.2,0.7,0.3l0,0h0
	c0.7,0.2,1.5,0.4,2.2,0.6c0.1,0,0.3,0,0.4,0.1c0.9,0.1,1.8,0.2,2.7,0.2h0c1.5,0,3-0.2,4.5-0.5c0.3-0.1,0.6-0.1,0.8-0.2v0
	c0.3-0.1,0.6-0.2,0.8-0.2h0l0,0l0,0c1.4-0.5,2.8-1.1,4.1-1.9c0.2-0.1,0.5-0.3,0.7-0.5c0.3-0.2,0.5-0.3,0.7-0.5l0,0l0,0l0.4-0.3v-0.5
	v-5.3l-1.8-0.7c-1,1.2-2.1,2.2-3.2,2.9h0c-0.2,0.2-0.5,0.3-0.7,0.4c-0.2,0.1-0.4,0.2-0.7,0.4l0,0l0,0c-0.7,0.3-1.4,0.6-2.1,0.8
	c-0.2,0-0.3,0.1-0.4,0.1c-0.9,0.2-1.8,0.3-2.8,0.3h0c-1.5,0-2.9-0.2-4.3-0.7v0c-0.2-0.1-0.5-0.2-0.8-0.3c-0.3-0.1-0.6-0.3-0.8-0.4v0
	l0,0l0,0c-0.9-0.5-1.7-1.1-2.5-1.7c-0.8-0.7-1.5-1.5-2.1-2.3h0c-0.3-0.5-0.6-1-0.9-1.6c-0.3-0.6-0.5-1.1-0.7-1.7
	c-0.1-0.5-0.3-1-0.3-1.5c0-0.2,0-0.3,0-0.3c-0.1-0.6-0.1-1.3-0.1-2.1v-0.1c0-1.9,0.3-3.5,0.9-5.1c0.4-1.1,1-2.1,1.7-3
	c0.1-0.2,0.3-0.3,0.4-0.5c0.2-0.2,0.3-0.4,0.5-0.5l0,0l0,0c0.8-0.8,1.7-1.6,2.7-2.1v0c0.2-0.1,0.4-0.2,0.6-0.3
	c0.2-0.1,0.4-0.2,0.6-0.3l0,0h0c0.8-0.3,1.6-0.6,2.3-0.7c0.8-0.2,1.6-0.2,2.4-0.2c1,0,2,0.1,2.9,0.3c0.9,0.2,1.8,0.5,2.6,0.9
	c1.2,0.6,2.3,1.3,3.4,2.3c0.2,0.2,0.4,0.4,0.7,0.6c0.2,0.2,0.4,0.4,0.6,0.6c0,0,0,0,0,0l0,0h0c0,0,0,0,0.1,0.1l1.7,1.8V269v-5.2
	v-0.5l-0.4-0.3C28.1,262.3,27.2,261.8,26.3,261.3"/>
<path class="st1" d="M51.4,290.6c-7,0-12.8-5.7-12.8-12.8c0-7,5.7-12.8,12.8-12.8c7,0,12.8,5.7,12.8,12.8
	C64.2,284.9,58.5,290.6,51.4,290.6 M51.4,259.3c-10.2,0-18.6,8.3-18.6,18.6c0,10.2,8.3,18.6,18.6,18.6c10.2,0,18.6-8.3,18.6-18.6
	C70,267.6,61.7,259.3,51.4,259.3"/>
<polygon class="st1" points="391.2,260 390.2,260 390.2,261 390.2,282.1 365.9,259.7 365.9,294.5 365.9,295.5 366.9,295.5 
	370.7,295.5 371.7,295.5 371.7,294.5 371.7,273.7 396,295.8 396,261 396,260 395,260 "/>
<polygon class="st1" points="427.6,293.8 412.6,276.1 426.2,261.7 427.8,260 425.4,260 420.7,260 420.3,260 420,260.3 407.8,273.3 
	407.8,261 407.8,260 406.8,260 402.9,260 401.9,260 401.9,261 401.9,294.5 401.9,295.5 402.9,295.5 406.8,295.5 407.8,295.5 
	407.8,294.5 407.8,279.3 421,295.2 421.3,295.5 421.7,295.5 426.8,295.5 429.1,295.5 "/>
<polygon class="st1" points="236,260 235,260 235,261 235,294.5 235,295.5 236,295.5 240,295.5 241,295.5 241,294.5 241,261 
	241,260 240,260 "/>
<path class="st1" d="M227.1,261.3c-0.9-0.5-1.9-0.9-2.8-1.2c-0.8-0.3-1.6-0.5-2.4-0.6l0,0c-0.1,0-0.3-0.1-0.5-0.1v0
	c-1-0.2-2-0.2-3-0.2h-0.1c-1.3,0-2.5,0.1-3.7,0.3c-1.2,0.2-2.3,0.5-3.4,1l0,0c-1.1,0.4-2.1,1-3.1,1.6c-1,0.6-1.9,1.4-2.8,2.3l0,0
	c-0.9,0.9-1.7,1.9-2.4,2.9c-0.7,1-1.3,2.1-1.7,3.2h0c-0.4,0.9-0.7,1.9-0.9,2.9c0,0.1-0.1,0.3-0.1,0.6c-0.2,1.2-0.3,2.5-0.3,3.9v0
	c0,1.6,0.2,3.1,0.5,4.5c0.3,1.4,0.9,2.8,1.5,4.1c1,1.9,2.3,3.6,3.9,5c0.3,0.3,0.6,0.6,1,0.8c0.3,0.3,0.7,0.5,1,0.7c0.1,0.1,0,0,0,0
	c0,0,0,0,0,0l0,0c1.1,0.8,2.3,1.4,3.5,1.9h0c0.3,0.1,0.5,0.2,0.7,0.3h0c0.2,0.1,0.5,0.2,0.7,0.3l0,0h0c0.7,0.2,1.5,0.4,2.2,0.6
	c0.1,0,0.3,0,0.4,0.1c0.9,0.1,1.8,0.2,2.7,0.2h0c1.5,0,3-0.2,4.5-0.5c0.3-0.1,0.6-0.1,0.9-0.2v0c0.3-0.1,0.6-0.2,0.8-0.2h0l0,0l0,0
	c1.4-0.5,2.8-1.1,4.1-1.9c0.2-0.1,0.5-0.3,0.7-0.5c0.3-0.2,0.5-0.3,0.7-0.5l0,0l0,0l0.4-0.3v-0.5v-5.3l-1.8-0.7
	c-1,1.2-2.1,2.2-3.2,2.9h0c-0.2,0.2-0.5,0.3-0.7,0.4c-0.2,0.1-0.5,0.3-0.7,0.4l0,0h0l0,0c-0.7,0.3-1.4,0.6-2.1,0.8h0
	c-0.2,0-0.3,0.1-0.4,0.1c-0.9,0.2-1.9,0.3-2.8,0.3h0c-1,0-2.1-0.1-3-0.4v0c-1-0.2-1.9-0.6-2.8-1.1v0c-0.9-0.5-1.7-1.1-2.5-1.7
	c-0.8-0.7-1.5-1.5-2.1-2.3c-0.3-0.5-0.6-1-0.9-1.6c-0.3-0.6-0.5-1.1-0.7-1.7c-0.1-0.5-0.3-1-0.3-1.5c0-0.2-0.1-0.3-0.1-0.3
	c-0.1-0.6-0.1-1.3-0.1-2.1v-0.1c0-1.9,0.3-3.5,0.9-5.1c0.4-1.1,1-2.1,1.7-3h0c0.1-0.2,0.3-0.3,0.4-0.5c0.2-0.2,0.3-0.4,0.5-0.5l0,0
	l0,0c0.8-0.8,1.7-1.6,2.7-2.1v0c0.2-0.1,0.4-0.2,0.6-0.3h0c0.2-0.1,0.4-0.2,0.6-0.3l0,0h0c0.8-0.3,1.6-0.6,2.3-0.7
	c0.8-0.2,1.6-0.2,2.4-0.2c1,0,2,0.1,2.9,0.3c0.9,0.2,1.8,0.5,2.6,0.9c1.2,0.6,2.3,1.3,3.4,2.3c0.2,0.2,0.4,0.4,0.6,0.6
	c0.2,0.2,0.4,0.4,0.6,0.6c0,0,0,0,0,0c0,0,0,0,0,0h0c0,0,0,0,0.1,0.1l1.8,1.8V269v-5.2v-0.5l-0.4-0.3
	C228.9,262.3,228,261.8,227.1,261.3"/>
<path class="st1" d="M255,279.8l3.7-8.7l3.7,8.7H255z M258.7,259l-16,35.1l-0.6,1.5h1.6h4.3h0.7l0.3-0.6l4-9.6h11.6l4,9.6l0.3,0.6
	h0.7h4.3h1.6l-0.6-1.5L258.7,259z"/>
<path class="st1" d="M326.7,285c0,0.5,0,0.9-0.1,1.3v0c-0.1,0.4-0.2,0.8-0.4,1.2c-0.2,0.3-0.3,0.7-0.6,0.9c-0.2,0.3-0.4,0.5-0.7,0.7
	l0,0c-0.2,0.2-0.5,0.3-0.7,0.4h0c-0.3,0.1-0.7,0.2-1.1,0.3l0,0c-0.4,0.1-0.8,0.1-1.3,0.1c-0.2,0-0.3,0-0.3,0c-0.7,0-1.6,0.1-2.6,0.1
	h-0.2h-2v-10.1h2h1.2c1,0,1.8,0,2.4,0.1c0.1,0,0.2,0,0.3,0c0.1,0,0.2,0,0.3,0v0l0.1,0c0.3,0.1,0.6,0.1,0.8,0.2
	c0.3,0.1,0.5,0.2,0.7,0.3l0,0c0.5,0.3,0.9,0.7,1.3,1.1c0.1,0.1,0.2,0.2,0.2,0.3v0c0.1,0.1,0.1,0.2,0.2,0.3v0v0l0,0
	c0.2,0.3,0.3,0.6,0.4,1v0c0,0.1,0,0.1,0,0.2l0,0C326.7,283.9,326.7,284.4,326.7,285L326.7,285z M316.7,265.5h2c2,0,3.5,0.2,4.6,0.6
	c0.2,0.1,0.3,0.1,0.5,0.2c0.1,0.1,0.3,0.2,0.4,0.2h0l0,0v0c0.8,0.7,1.2,1.9,1.2,3.7c0,0.8-0.1,1.5-0.3,2.1c-0.2,0.5-0.5,0.9-1,1.2
	c-0.4,0.3-0.9,0.5-1.5,0.7c-0.1,0-0.3,0.1-0.4,0.1c-0.9,0.2-2,0.3-3.3,0.3h-0.1h-2V265.5z M332.1,289.2c0.3-0.7,0.5-1.4,0.6-2.1
	c0.1-0.7,0.2-1.4,0.2-2.2c0-1.8-0.3-3.3-1-4.7c-0.1-0.3-0.3-0.5-0.4-0.8c-0.2-0.3-0.3-0.5-0.5-0.7l0,0v0c0,0,0,0,0,0
	c-0.6-0.8-1.4-1.5-2.3-2c-0.1-0.1-0.2-0.1-0.3-0.2c0.7-0.5,1.2-1,1.7-1.7c1-1.4,1.4-3,1.4-5c0-0.8-0.1-1.6-0.2-2.4h0
	c-0.2-0.7-0.4-1.5-0.7-2.2h0c-0.5-1-1.1-1.9-1.8-2.6v0c-0.2-0.2-0.3-0.3-0.5-0.4c-0.1-0.1-0.3-0.2-0.5-0.4l0,0l0,0v0
	c-0.5-0.4-1-0.7-1.6-0.9c-0.6-0.2-1.2-0.4-1.8-0.6h0c-1.2-0.3-3.1-0.4-5.6-0.4h-6.9h-1v1v33.5v1h1h6.9c1.7,0,3.1,0,4.2-0.1h0
	c1.2-0.1,2.2-0.3,2.9-0.5c0.8-0.2,1.5-0.5,2.1-0.9c0.7-0.4,1.3-0.8,1.8-1.3l0,0c0.5-0.5,0.9-1,1.3-1.6
	C331.6,290.5,331.9,289.9,332.1,289.2L332.1,289.2z"/>
<polygon class="st1" points="282,289.7 282,261 282,260 281,260 277,260 276,260 276,261 276,294.5 276,295.5 277,295.5 
	293.5,295.5 294.5,295.5 294.5,294.5 294.5,290.7 294.5,289.7 293.5,289.7 "/>
<polygon class="st1" points="153.3,260 152.3,260 152.3,261 152.3,294.5 152.3,295.5 153.3,295.5 170.8,295.5 171.9,295.5 
	171.9,294.5 171.9,290.8 171.9,289.8 170.8,289.8 158.3,289.8 158.3,279 170.8,279 171.9,279 171.9,278 171.9,274.3 171.9,273.2 
	170.8,273.2 158.3,273.2 158.3,265.7 170.8,265.7 171.9,265.7 171.9,264.7 171.9,261 171.9,260 170.8,260 "/>
<polygon class="st1" points="110.4,294.3 101.7,259.3 91,283.4 80.4,259.3 71.7,294.3 71.5,295.5 72.7,295.5 76.6,295.5 77.4,295.5 
	77.6,294.7 81.1,277.1 91,295.9 100.2,276.8 104.5,294.7 104.7,295.5 105.5,295.5 109.4,295.5 110.3,295.5 110.6,295.5 110.5,294.8 
	"/>
<polygon class="st1" points="150,294.3 141.3,259.3 130.7,283.4 120,259.3 111.3,294.3 111.1,295.5 112.3,295.5 116.2,295.5 
	117,295.5 117.2,294.7 120.8,277.1 130.7,295.9 139.9,276.8 144.1,294.7 144.3,295.5 145.2,295.5 149,295.5 150,295.5 150.2,295.5 
	150.1,294.8 "/>
<path class="st1" d="M344.7,279.8l3.7-8.7l3.7,8.7H344.7z M348.5,259l-16,35.1l-0.6,1.5h1.6h4.3h0.7l0.3-0.6l4-9.6h11.6l4,9.6
	l0.3,0.6h0.7h4.3h1.6l-0.6-1.5L348.5,259z"/>
<path class="st1" d="M184.4,274.6h-2v-9.1h2c1.4,0,2.6,0.1,3.6,0.3c0.9,0.2,1.5,0.4,1.9,0.8v0c0.4,0.3,0.7,0.8,0.9,1.3
	c0.2,0.6,0.3,1.4,0.3,2.4c0,0.9-0.1,1.6-0.3,2.2c-0.2,0.5-0.5,0.9-0.8,1.2h0c-0.4,0.3-1,0.5-1.9,0.7
	C187.1,274.5,185.9,274.6,184.4,274.6 M188.5,279.5c1-0.1,1.9-0.3,2.8-0.5v0c1.3-0.4,2.3-1,3.2-1.8c0.9-0.8,1.5-1.8,2-3
	c0.4-1.2,0.6-2.5,0.6-4c0-0.8-0.1-1.7-0.2-2.5c-0.1-0.8-0.4-1.6-0.7-2.3c-0.4-1-1-2-1.7-2.7v0c-0.1-0.1-0.3-0.3-0.4-0.4
	c-0.1-0.1-0.3-0.2-0.5-0.4l0,0l0,0c-0.6-0.5-1.4-0.9-2.2-1.2c-0.1-0.1-0.3-0.1-0.5-0.2l0,0c-0.1,0-0.3-0.1-0.5-0.1l0,0l0,0
	c-1.1-0.3-2.8-0.4-5.1-0.4h-7.8h-1v1v33.5v1h1h3.8h1v-1v-13.6l10.8,14.3l0.3,0.4h0.5h5h2.2l-1.3-1.7L188.5,279.5z"/>
</svg>
